PathFileType	4	(X/Y/Z)	output.trc
DataRate	CameraRate	NumFrames	NumMarkers	Units	OrigDataRate	OrigDataStartFrame	OrigNumFrames
100	100	13	23	m	100	2187	3498
Frame#	Time	C7			T8			EL			EM			US			RS			AA			Fore_Clus_1			Fore_Clus_2			Fore_Clus_3			Fore_Clus_4			Hum_Clus_1			Hum_Clus_2			Hum_Clus_3			Hum_Clus_4			Thor_Clus_1			Thor_Clus_2			Thor_Clus_3			Thor_Clus_4			IJ			PX			GH			Thor_Clus_5		
		X1	Y1	Z1	X2	Y2	Z2	X3	Y3	Z3	X4	Y4	Z4	X5	Y5	Z5	X6	Y6	Z6	X7	Y7	Z7	X8	Y8	Z8	X9	Y9	Z9	X10	Y10	Z10	X11	Y11	Z11	X12	Y12	Z12	X13	Y13	Z13	X14	Y14	Z14	X15	Y15	Z15	X16	Y16	Z16	X17	Y17	Z17	X18	Y18	Z18	X19	Y19	Z19	X20	Y20	Z20	X21	Y21	Z21	X22	Y22	Z22	X23	Y23	Z23
2186	21.860000	-0.034877	1.476678	-0.113824	-0.090646	1.245548	-0.115728	-0.392216	1.488240	0.185086	-0.391720	1.424494	0.199473	-0.596321	1.547784	0.308166	-0.576357	1.538381	0.357576	-0.176009	1.425057	0.051159	-0.531714	1.564728	0.269925	-0.575352	1.576550	0.300646	-0.559011	1.575841	0.323498	-0.505581	1.564103	0.306494	-0.301834	1.511091	0.134092	-0.330105	1.481752	0.089835	-0.284874	1.483659	0.045018	-0.247155	1.505924	0.084606	0.085201	1.378073	0.017671	0.046847	1.343090	0.084143	0.048889	1.383605	0.043085	0.099008	1.334599	0.047123	0.022915	1.391230	-0.016002	0.029800	1.185804	0.063918	-0.146494	1.406593	0.017687	0.040553	1.362406	0.070897
2187	21.870000	-0.034818	1.476721	-0.114371	-0.091222	1.245739	-0.115291	-0.390900	1.496098	0.183202	-0.390924	1.432760	0.199300	-0.594378	1.561199	0.304487	-0.574633	1.552507	0.354115	-0.175910	1.426146	0.050970	-0.529470	1.576540	0.266111	-0.573044	1.589529	0.296394	-0.556839	1.589044	0.319506	-0.503443	1.576212	0.302757	-0.300574	1.516714	0.131376	-0.329041	1.486428	0.087866	-0.283972	1.486705	0.043139	-0.245908	1.509773	0.081841	0.085090	1.378355	0.017347	0.046823	1.343798	0.084043	0.048776	1.383967	0.042747	0.098837	1.334950	0.046961	0.022847	1.391506	-0.016271	0.029257	1.186382	0.064461	-0.146289	1.407827	0.017546	0.040500	1.362962	0.070715
2188	21.880000	-0.034749	1.476796	-0.114906	-0.091793	1.245969	-0.114852	-0.389487	1.503831	0.181253	-0.390014	1.440950	0.199045	-0.592247	1.574380	0.300673	-0.572692	1.566407	0.350496	-0.175796	1.427264	0.050790	-0.527019	1.588106	0.262187	-0.570480	1.602447	0.292096	-0.554287	1.602011	0.315223	-0.500986	1.588177	0.298844	-0.299178	1.522245	0.128575	-0.328120	1.490936	0.086108	-0.283084	1.489581	0.041255	-0.244743	1.513475	0.079224	0.085015	1.378580	0.017023	0.046698	1.344371	0.083983	0.048622	1.384353	0.042399	0.098652	1.335355	0.046838	0.022789	1.391809	-0.016534	0.028723	1.186988	0.064998	-0.146115	1.409020	0.017398	0.040421	1.363554	0.070477
2189	21.890000	-0.034677	1.476911	-0.115422	-0.092364	1.246246	-0.114411	-0.387981	1.511448	0.179238	-0.388998	1.449071	0.198704	-0.589933	1.587348	0.296720	-0.570537	1.580105	0.346717	-0.175668	1.428412	0.050627	-0.524360	1.599480	0.258086	-0.567680	1.614994	0.287682	-0.551641	1.614737	0.311005	-0.498427	1.599782	0.294844	-0.297681	1.527600	0.125795	-0.326955	1.495466	0.084142	-0.282226	1.492609	0.039308	-0.243545	1.517051	0.076519	0.085084	1.379189	0.016848	0.046597	1.345106	0.083801	0.048863	1.385094	0.042263	0.098498	1.335748	0.046726	0.022739	1.392143	-0.016790	0.028197	1.187623	0.065527	-0.145973	1.410165	0.017245	0.040355	1.364197	0.070335
2190	21.900000	-0.034601	1.477044	-0.115936	-0.092925	1.246546	-0.113967	-0.386387	1.518955	0.177148	-0.387880	1.457129	0.198271	-0.587436	1.600124	0.292631	-0.568168	1.593629	0.342780	-0.175533	1.429579	0.050461	-0.521576	1.610609	0.253809	-0.564695	1.627388	0.283078	-0.548613	1.627434	0.306159	-0.495813	1.611277	0.290785	-0.296153	1.532866	0.123134	-0.325905	1.499943	0.082465	-0.281201	1.495459	0.037396	-0.242145	1.520517	0.073954	0.084995	1.379442	0.016560	0.046471	1.345796	0.083626	0.048871	1.385616	0.042012	0.098336	1.336134	0.046620	0.022694	1.392500	-0.017043	0.027682	1.188285	0.066058	-0.145862	1.411263	0.017093	0.040376	1.364860	0.070171
2191	21.910000	-0.034530	1.477210	-0.116435	-0.093489	1.246883	-0.113516	-0.384706	1.526358	0.174979	-0.386664	1.465130	0.197739	-0.584757	1.612721	0.288392	-0.565591	1.606996	0.338674	-0.175394	1.430770	0.050309	-0.518666	1.621624	0.249421	-0.561592	1.639497	0.278303	-0.545574	1.639954	0.301052	-0.492951	1.622581	0.286253	-0.294417	1.537935	0.120307	-0.324612	1.504341	0.080534	-0.280182	1.498276	0.035588	-0.240856	1.523849	0.071237	0.084774	1.379641	0.016236	0.046469	1.346568	0.083538	0.048876	1.386160	0.041798	0.098200	1.336504	0.046486	0.022649	1.392884	-0.017287	0.027171	1.188975	0.066587	-0.145781	1.412309	0.016942	0.040424	1.365541	0.070024
2192	21.920000	-0.034466	1.477388	-0.116931	-0.094051	1.247236	-0.113057	-0.382940	1.533662	0.172720	-0.385354	1.473075	0.197098	-0.581895	1.625152	0.284001	-0.562804	1.620223	0.334395	-0.175255	1.431974	0.050158	-0.515635	1.632445	0.244790	-0.558526	1.651362	0.273207	-0.542522	1.652040	0.296401	-0.489960	1.633735	0.281676	-0.292746	1.542887	0.117521	-0.323417	1.508651	0.078709	-0.279188	1.501005	0.033757	-0.239689	1.527096	0.068529	0.084718	1.379977	0.015951	0.046460	1.347160	0.083507	0.048900	1.386708	0.041525	0.098075	1.336901	0.046338	0.022602	1.393287	-0.017528	0.026668	1.189690	0.067123	-0.145726	1.413307	0.016797	0.040442	1.366171	0.069861
2193	21.930000	-0.034413	1.477573	-0.117425	-0.094613	1.247599	-0.112587	-0.381091	1.540866	0.170365	-0.383950	1.480967	0.196339	-0.578850	1.637424	0.279448	-0.559808	1.633319	0.329935	-0.175122	1.433188	0.050008	-0.512527	1.643024	0.240097	-0.555046	1.663138	0.267953	-0.539123	1.664096	0.291220	-0.486801	1.644778	0.276985	-0.291101	1.547874	0.114583	-0.322184	1.512874	0.076846	-0.278224	1.503703	0.031890	-0.238338	1.530357	0.065812	0.084670	1.380335	0.015670	0.046434	1.347808	0.083471	0.048872	1.387189	0.041276	0.097960	1.337328	0.046208	0.022548	1.393705	-0.017765	0.026168	1.190427	0.067670	-0.145690	1.414261	0.016660	0.040395	1.366735	0.069684
2194	21.940000	-0.034377	1.477766	-0.117913	-0.095184	1.247975	-0.112102	-0.379158	1.547972	0.167906	-0.382453	1.488802	0.195454	-0.575620	1.649535	0.274724	-0.556607	1.646286	0.325284	-0.174995	1.434411	0.049866	-0.509173	1.653460	0.235232	-0.551706	1.674669	0.262862	-0.535570	1.675977	0.285714	-0.483515	1.655674	0.272052	-0.289366	1.552693	0.111586	-0.320927	1.517136	0.074853	-0.277217	1.506324	0.029996	-0.237136	1.533532	0.063021	0.084615	1.380664	0.015421	0.046371	1.348462	0.083409	0.048860	1.387652	0.041080	0.097872	1.337802	0.046143	0.022485	1.394135	-0.017996	0.025667	1.191183	0.068228	-0.145668	1.415174	0.016528	0.040371	1.367498	0.069590
2195	21.950000	-0.034357	1.477942	-0.118410	-0.095757	1.248336	-0.111601	-0.377143	1.554975	0.165337	-0.380862	1.496577	0.194435	-0.572206	1.661486	0.269831	-0.553197	1.659122	0.320441	-0.174881	1.435630	0.049713	-0.505757	1.663638	0.230184	-0.548012	1.686064	0.257079	-0.531817	1.687662	0.279805	-0.480046	1.666439	0.266919	-0.287535	1.557410	0.108505	-0.319379	1.521392	0.072187	-0.276196	1.508777	0.028114	-0.235621	1.536452	0.060281	0.084621	1.381114	0.015252	0.046293	1.349400	0.083278	0.048891	1.388296	0.040911	0.097742	1.338247	0.046057	0.022409	1.394565	-0.018228	0.025169	1.191954	0.068808	-0.145652	1.416056	0.016404	0.040367	1.368274	0.069485
2196	21.960000	-0.034357	1.478112	-0.118904	-0.096343	1.248697	-0.111080	-0.375043	1.561871	0.162658	-0.379173	1.504284	0.193278	-0.568609	1.673264	0.264762	-0.549582	1.671816	0.315400	-0.174776	1.436851	0.049567	-0.502238	1.673608	0.224900	-0.544235	1.697091	0.251477	-0.528177	1.699177	0.274118	-0.476452	1.676961	0.261532	-0.285725	1.561977	0.105300	-0.318193	1.525396	0.070345	-0.275214	1.511165	0.026140	-0.234222	1.539465	0.057333	0.084583	1.381530	0.015031	0.046239	1.350141	0.083212	0.048956	1.389004	0.040701	0.097599	1.338708	0.046005	0.022320	1.394998	-0.018454	0.024665	1.192736	0.069405	-0.145637	1.416910	0.016279	0.040330	1.368970	0.069369
2197	21.970000	-0.034375	1.478258	-0.119407	-0.096937	1.249037	-0.110541	-0.372860	1.568650	0.159869	-0.377384	1.511914	0.191983	-0.564832	1.684860	0.259527	-0.545761	1.684354	0.310167	-0.174684	1.438065	0.049413	-0.498678	1.683386	0.219494	-0.540165	1.708016	0.245414	-0.523922	1.710466	0.268008	-0.472739	1.687382	0.256018	-0.283901	1.566341	0.102025	-0.316880	1.529204	0.068248	-0.274287	1.513390	0.024236	-0.232770	1.541921	0.054619	0.084455	1.381903	0.014759	0.045937	1.350657	0.083273	0.048849	1.389524	0.040424	0.097443	1.339172	0.045923	0.022218	1.395422	-0.018680	0.024157	1.193526	0.070025	-0.145615	1.417746	0.016148	0.040242	1.369621	0.069171
2198	21.980000	-0.034410	1.478378	-0.119920	-0.097541	1.249356	-0.109981	-0.370593	1.575305	0.156974	-0.375491	1.519454	0.190552	-0.560879	1.696255	0.254134	-0.541736	1.696718	0.304747	-0.174603	1.439272	0.049252	-0.494942	1.692936	0.213953	-0.536169	1.718670	0.239503	-0.519733	1.721542	0.262050	-0.468867	1.697528	0.250342	-0.281990	1.570688	0.098586	-0.315541	1.532882	0.066148	-0.273443	1.515551	0.022235	-0.231547	1.544370	0.052021	0.084382	1.382282	0.014527	0.045944	1.351523	0.083258	0.048733	1.390039	0.040154	0.097286	1.339660	0.045847	0.022102	1.395834	-0.018908	0.023645	1.194320	0.070668	-0.145583	1.418571	0.016003	0.040224	1.370439	0.069093
